<svg width="18" height="18" viewBox="0 0 18 18" fill="none" xmlns="http://www.w3.org/2000/svg">
<path d="M7.83335 10.5L6.02085 8.68752C5.86808 8.53474 5.67696 8.46169 5.44752 8.46835C5.21808 8.47502 5.02724 8.55502 4.87502 8.70835C4.72224 8.86113 4.64585 9.05558 4.64585 9.29169C4.64585 9.5278 4.72224 9.72224 4.87502 9.87502L7.25002 12.25C7.4028 12.4028 7.59724 12.4792 7.83335 12.4792C8.06947 12.4792 8.26391 12.4028 8.41669 12.25L13.1459 7.52085C13.2986 7.36808 13.3717 7.17696 13.365 6.94752C13.3584 6.71808 13.2784 6.52724 13.125 6.37502C12.9722 6.22224 12.7778 6.14585 12.5417 6.14585C12.3056 6.14585 12.1111 6.22224 11.9584 6.37502L7.83335 10.5ZM9.00002 17.3334C7.84724 17.3334 6.76391 17.1145 5.75002 16.6767C4.73613 16.2389 3.85419 15.6453 3.10419 14.8959C2.35419 14.1459 1.76058 13.2639 1.32335 12.25C0.886132 11.2361 0.667243 10.1528 0.666687 9.00002C0.666687 7.84724 0.885576 6.76391 1.32335 5.75002C1.76113 4.73613 2.35474 3.85419 3.10419 3.10419C3.85419 2.35419 4.73613 1.76058 5.75002 1.32335C6.76391 0.886132 7.84724 0.667243 9.00002 0.666687C10.1528 0.666687 11.2361 0.885576 12.25 1.32335C13.2639 1.76113 14.1459 2.35474 14.8959 3.10419C15.6459 3.85419 16.2397 4.73613 16.6775 5.75002C17.1153 6.76391 17.3339 7.84724 17.3334 9.00002C17.3334 10.1528 17.1145 11.2361 16.6767 12.25C16.2389 13.2639 15.6453 14.1459 14.8959 14.8959C14.1459 15.6459 13.2639 16.2397 12.25 16.6775C11.2361 17.1153 10.1528 17.3339 9.00002 17.3334ZM9.00002 15.6667C10.8472 15.6667 12.4203 15.0175 13.7192 13.7192C15.0181 12.4209 15.6672 10.8478 15.6667 9.00002C15.6667 7.1528 15.0175 5.57974 13.7192 4.28085C12.4209 2.98196 10.8478 2.3328 9.00002 2.33335C7.1528 2.33335 5.57974 2.98252 4.28085 4.28085C2.98196 5.57919 2.3328 7.15224 2.33335 9.00002C2.33335 10.8472 2.98252 12.4203 4.28085 13.7192C5.57919 15.0181 7.15224 15.6672 9.00002 15.6667Z" fill="white"/>
</svg>
