<svg width="18" height="16" viewBox="0 0 18 16" fill="none" xmlns="http://www.w3.org/2000/svg">
<path d="M17.3273 2.38593C17.2801 2.27172 17.2 2.17409 17.0972 2.1054C16.9944 2.0367 16.8736 2.00002 16.75 1.99999H14.3727C14.0403 1.43451 13.5672 0.964649 12.9995 0.636092C12.4318 0.307536 11.7887 0.131464 11.1328 0.124995C10.6442 0.118585 10.1591 0.209974 9.70633 0.393785C9.25351 0.577595 8.84203 0.850114 8.49609 1.19531C8.14006 1.5447 7.85746 1.96175 7.66494 2.42194C7.47241 2.88212 7.37383 3.37616 7.375 3.87499V4.35078C4.22969 3.52109 1.65703 0.962495 1.62969 0.935151C1.54584 0.850558 1.43956 0.791686 1.32337 0.765469C1.20719 0.739252 1.08593 0.74678 0.973873 0.787168C0.861821 0.827556 0.763642 0.899122 0.6909 0.993437C0.618157 1.08775 0.57388 1.20089 0.563281 1.31953C0.226562 5.05312 1.31094 7.55156 2.28203 8.98984C2.75553 9.70085 3.33155 10.3379 3.99141 10.8805C2.80156 12.25 0.928125 12.9695 0.907812 12.9773C0.81962 13.0104 0.740032 13.0629 0.674996 13.131C0.60996 13.1991 0.561158 13.2811 0.532235 13.3707C0.503312 13.4603 0.495016 13.5553 0.507968 13.6486C0.52092 13.7419 0.554784 13.831 0.607031 13.9094C0.665624 13.9969 0.9 14.3039 1.47266 14.5906C2.18047 14.9453 3.11562 15.125 4.25 15.125C9.77109 15.125 14.3844 10.8734 14.8555 5.40312L17.1922 3.06718C17.2796 2.97973 17.339 2.86832 17.3631 2.74706C17.3872 2.6258 17.3747 2.50012 17.3273 2.38593ZM13.8117 4.68359C13.7046 4.79101 13.6401 4.93373 13.6305 5.08515C13.3125 10.0141 9.19375 13.875 4.25 13.875C3.425 13.875 2.84375 13.7656 2.43594 13.6344C3.33516 13.1461 4.58906 12.3062 5.39531 11.0969C5.44263 11.0258 5.47487 10.9457 5.49005 10.8616C5.50522 10.7776 5.503 10.6913 5.48352 10.6081C5.46405 10.525 5.42773 10.4467 5.37682 10.3781C5.32591 10.3095 5.26147 10.2521 5.1875 10.2094C5.15078 10.1883 1.75703 8.15156 1.75 2.70937C3 3.725 5.28516 5.30078 7.89609 5.73984C7.98558 5.75493 8.07727 5.75035 8.16481 5.72642C8.25234 5.70249 8.33362 5.65978 8.40298 5.60127C8.47235 5.54276 8.52814 5.46985 8.56648 5.3876C8.60482 5.30535 8.62479 5.21574 8.625 5.12499V3.87499C8.6243 3.5416 8.69029 3.21142 8.81909 2.90391C8.94789 2.59639 9.1369 2.31775 9.375 2.08437C9.60325 1.8557 9.87502 1.6751 10.1743 1.55326C10.4735 1.43142 10.7941 1.3708 11.1172 1.37499C12.1062 1.38749 13.0305 1.99062 13.4172 2.87578C13.4659 2.98706 13.5461 3.08173 13.6478 3.14819C13.7495 3.21465 13.8683 3.25003 13.9898 3.24999H15.2398L13.8117 4.68359Z" fill="white"/>
</svg>
